<svg xmlns="http://www.w3.org/2000/svg" width="100" height="100" viewBox="0 0 100 100" fill="none" stroke="#B9A88A" stroke-linejoin="miter" data-mark="nizam-al-mulk"><path d="M90.65 55.05 L90.65 66.84 L66.84 90.65 L55.05 90.65 M44.95 90.65 L33.16 90.65 L9.35 66.84 L9.35 55.05 M9.35 44.95 L9.35 33.16 L33.16 9.35 L44.95 9.35 M55.05 9.35 L66.84 9.35 L90.65 33.16 L90.65 44.95" stroke-width="5.2" stroke-linecap="butt"/><path d="M50 38 L50 31 M28 31 L72 31 M28 31 L28 23 M50 31 L50 23 M72 31 L72 23 M50 62 L50 69 M28 69 L72 69 M28 69 L28 77 M50 69 L50 77 M72 69 L72 77" stroke-width="2.2" stroke-linecap="butt"/><path d="M50 37.97 L53.96 40.44 L58.51 41.49 L59.56 46.04 L62.03 50 L59.56 53.96 L58.51 58.51 L53.96 59.56 L50 62.03 L46.04 59.56 L41.49 58.51 L40.44 53.96 L37.97 50 L40.44 46.04 L41.49 41.49 L46.04 40.44 Z" fill="#B9A88A" stroke="none"/></svg>
